<svg width="25" height="25" viewBox="0 0 25 25" fill="none" xmlns="http://www.w3.org/2000/svg">
<path d="M21.5 4.64551H3.5C3.30109 4.64551 3.11032 4.72453 2.96967 4.86518C2.82902 5.00583 2.75 5.1966 2.75 5.39551V18.1455C2.75 18.5433 2.90804 18.9249 3.18934 19.2062C3.47064 19.4875 3.85218 19.6455 4.25 19.6455H20.75C21.1478 19.6455 21.5294 19.4875 21.8107 19.2062C22.092 18.9249 22.25 18.5433 22.25 18.1455V5.39551C22.25 5.1966 22.171 5.00583 22.0303 4.86518C21.8897 4.72453 21.6989 4.64551 21.5 4.64551ZM19.5716 6.14551L12.5 12.6283L5.42844 6.14551H19.5716ZM20.75 18.1455H4.25V7.10082L11.9928 14.1986C12.1312 14.3257 12.3122 14.3961 12.5 14.3961C12.6878 14.3961 12.8688 14.3257 13.0072 14.1986L20.75 7.10082V18.1455Z" fill="#525252"/>
</svg>
