<svg width="168" height="28" viewBox="0 0 168 28" fill="none" xmlns="http://www.w3.org/2000/svg">
<path fill-rule="evenodd" clip-rule="evenodd" d="M15.8287 0.891514V22.2927H12.9837C12.4813 22.2927 12.0758 21.8944 12.0758 21.401V20.4795C11.077 21.8766 9.32162 22.6494 7.26357 22.6494C3.08695 22.6494 -0.00012207 19.3798 -0.00012207 14.9509C-0.00012207 10.522 3.08695 7.25242 7.26357 7.25242C9.17029 7.25242 10.6533 7.8469 11.7428 9.00613V-0.000202179H14.9207C15.4231 -0.000202179 15.8287 0.398098 15.8287 0.891514ZM8.0202 10.8787C5.8411 10.8787 4.14624 12.5135 4.14624 14.9212C4.14624 17.3288 5.81083 18.9934 8.0202 18.9934C10.0783 18.9934 11.8034 17.5963 11.8034 14.9509C11.8034 12.3055 10.0783 10.8787 8.0202 10.8787ZM25.7933 19.1975C23.6153 19.1975 22.0723 18.1582 21.5872 16.2875H32.0885C32.2701 15.5444 32.3609 14.8013 32.3609 14.0879C32.3609 10.2536 29.4554 7.25145 25.309 7.25145C20.9811 7.16228 17.3795 10.6994 17.4703 14.9499C17.3795 19.2004 21.0416 22.7376 25.6722 22.6484C27.6122 22.6484 29.3858 22.0747 30.9989 20.9512C31.3833 20.6807 31.4862 20.1605 31.2411 19.7622L29.9699 17.7113C28.6685 18.6922 27.2763 19.1975 25.7933 19.1975ZM28.3961 13.4608C28.3658 11.6476 26.9434 10.4884 25.1577 10.4884C23.3721 10.4884 22.0404 11.6476 21.5864 13.4608H28.3961ZM34.9127 17.3592L34.9094 17.3559H34.9155L34.9127 17.3592ZM34.9127 17.3592C36.2132 18.6946 37.6346 19.3474 39.1163 19.3474C40.2059 19.3474 41.023 18.9313 41.023 18.1287C41.023 17.5045 40.5993 17.2667 39.4795 16.7912L37.8755 16.1372C35.1213 15.0375 33.7896 13.8188 33.7896 11.6489C33.7896 8.88461 36.0293 7.2498 39.2979 7.2498C41.1986 7.2498 42.7724 7.78483 44.0375 8.83705C44.4158 9.15213 44.4703 9.71093 44.1555 10.0884L42.6301 11.9194C41.6314 10.998 40.5116 10.5224 39.2707 10.5224C38.2719 10.5224 37.6666 10.8791 37.6666 11.5627C37.6666 12.1275 38.0601 12.395 39.2404 12.8706L40.6932 13.4651C43.5986 14.6243 44.9 15.7835 44.9 17.9534C44.9 19.4098 44.3553 20.5691 43.2355 21.4013C42.1459 22.2336 40.7537 22.6497 39.0588 22.6497C36.7496 22.6497 34.7642 21.8264 33.3931 20.4175C33.0693 20.0875 33.0421 19.5733 33.3417 19.2196L34.9127 17.3592ZM48.505 6.02782C49.634 6.02782 50.5492 5.12902 50.5492 4.02022C50.5492 2.91142 49.6311 2.01542 48.505 2.01542C47.376 2.01542 46.4608 2.91422 46.4608 4.02302C46.4608 5.13182 47.376 6.03062 48.505 6.03062V6.02782ZM46.4608 7.83662V22.2902H49.6397C50.1415 22.2902 50.5463 21.8898 50.5463 21.3998V7.45302C50.0132 7.69942 49.4145 7.83662 48.7758 7.83662H46.4608ZM80.1855 22.2901H83.3331V13.1648C83.3331 9.59798 81.1843 7.2498 77.7038 7.2498C75.9181 7.2498 74.3746 7.874 73.3153 8.91433V8.46848C73.3153 7.97506 72.9097 7.57676 72.4073 7.57676H69.5624V21.3984C69.5624 21.8918 69.9679 22.2901 70.4703 22.2901H73.6482V13.6999C73.6482 12.0056 74.8286 10.8464 76.4931 10.8464C78.1577 10.8464 79.2776 12.0056 79.2776 13.6999V21.3984C79.2776 21.8918 79.6831 22.2901 80.1855 22.2901ZM67.9302 7.57676V20.6553C67.9302 25.4408 64.8734 27.9971 60.1823 27.9971C57.6733 27.9971 55.4518 27.2659 53.5209 25.8213C53.1244 25.527 53.0548 24.9682 53.3544 24.5788L54.9767 22.4684C56.6412 23.6871 58.0335 24.3707 59.8494 24.3707C62.2706 24.3707 63.8444 23.1818 63.8444 20.8931V20.0905C62.7549 21.2497 61.1811 21.8442 59.2743 21.8442C55.128 21.8442 52.1014 18.8421 52.1014 14.5321C52.1014 10.2222 55.1885 7.2498 59.2743 7.2498C61.4232 7.2498 63.118 8.02262 64.1773 9.41964V8.46848C64.1773 7.97506 64.5829 7.57676 65.0853 7.57676H67.9302ZM60.1218 10.668C57.9124 10.668 56.2478 12.1245 56.2478 14.5024C56.2478 16.8803 57.9427 18.4557 60.1218 18.4557C62.1798 18.4557 63.9049 16.9992 63.9049 14.4727C63.9049 11.9462 62.2101 10.668 60.1218 10.668ZM156.824 22.263H153.089C152.508 22.263 151.963 21.9895 151.621 21.5288L146.14 14.1186V22.263H142.963C142.463 22.263 142.055 21.8647 142.055 21.3713V-0.000202179H145.232C145.735 -0.000202179 146.14 0.398098 146.14 0.891514V13.8214L150.977 8.1917C151.328 7.78448 151.842 7.54966 152.387 7.54966H156.373L150.741 14.0592L156.827 22.263H156.824ZM137.271 22.2618H140.419V22.2588V13.1336C140.419 9.56673 138.27 7.21855 134.79 7.21855C133.004 7.21855 131.461 7.84275 130.401 8.88308V8.43723C130.401 7.94381 129.996 7.54551 129.493 7.54551H126.648V21.3701C126.648 21.8635 127.054 22.2618 127.556 22.2618H130.734V13.6716C130.734 11.9773 131.914 10.8181 133.579 10.8181C135.244 10.8181 136.364 11.9773 136.364 13.6716V21.3701C136.364 21.8635 136.769 22.2618 137.271 22.2618ZM104.883 22.2696H108.061V22.2666V13.1414C108.061 9.57455 105.912 7.22636 102.401 7.22636C100.343 7.22636 98.588 8.0289 97.4077 9.33675C96.4089 7.93973 94.9259 7.22636 92.9587 7.22636C91.2336 7.22636 89.7203 7.82084 88.7215 8.86117V8.44504C88.7215 7.95162 88.316 7.55332 87.8136 7.55332H84.9686V21.3779C84.9686 21.8713 85.3742 22.2696 85.8766 22.2696H89.0545V13.7091C89.0545 11.9554 90.2045 10.8556 91.8086 10.8556C93.4127 10.8556 94.472 11.9554 94.472 13.7091V21.3779C94.472 21.8713 94.8775 22.2696 95.3799 22.2696H98.5578V13.62C98.5578 11.9852 99.7079 10.8556 101.312 10.8556C102.916 10.8556 103.975 11.9554 103.975 13.7091V21.3779C103.975 21.8713 104.381 22.2696 104.883 22.2696ZM158.006 17.3358L158.003 17.3325H158.009L158.006 17.3358ZM158.006 17.3358C159.307 18.6711 160.728 19.324 162.21 19.324C163.3 19.324 164.117 18.9078 164.117 18.1053C164.117 17.4811 163.693 17.2433 162.573 16.7677L160.969 16.1138C158.215 15.014 156.883 13.7953 156.883 11.6255C156.883 8.86117 159.123 7.22636 162.392 7.22636C164.292 7.22636 165.866 7.76139 167.131 8.81361C167.51 9.12869 167.564 9.6875 167.249 10.065L165.724 11.896C164.725 10.9745 163.605 10.499 162.364 10.499C161.366 10.499 160.76 10.8556 160.76 11.5393C160.76 12.104 161.154 12.3716 162.334 12.8471L163.787 13.4416C166.692 14.6009 167.994 15.7601 167.994 17.9299C167.994 19.3864 167.449 20.5456 166.329 21.3779C165.24 22.2102 163.847 22.6263 162.153 22.6263C159.843 22.6263 157.858 21.8029 156.487 20.394C156.163 20.0641 156.136 19.5499 156.435 19.1962L158.006 17.3358ZM124.335 11.7222C123.966 10.8453 123.423 10.0496 122.742 9.38027C122.06 8.71092 121.249 8.17694 120.356 7.81444C119.464 7.45194 118.509 7.26542 117.542 7.26542H116.648C114.773 7.26542 112.975 7.99644 111.649 9.29905C110.322 10.6017 109.578 12.366 109.578 14.2071V21.573C109.578 21.767 109.658 21.9535 109.797 22.0919C109.938 22.2288 110.128 22.307 110.325 22.307H117.825C118.754 22.307 119.673 22.1265 120.53 21.7776C121.388 21.4286 122.167 20.9187 122.824 20.2734C123.48 19.6281 124.001 18.864 124.356 18.0217C124.711 17.1793 124.894 16.2753 124.894 15.3638V14.4854C124.894 13.5363 124.704 12.5977 124.335 11.7222ZM121.039 16.6213C119.948 17.5599 118.637 18.0548 117.247 18.0548C115.856 18.0548 114.543 17.5599 113.454 16.6213C113.199 16.4032 113.174 16.0226 113.396 15.773C113.62 15.5218 114.006 15.4977 114.262 15.7158C115.124 16.4588 116.156 16.8514 117.247 16.8514C118.337 16.8514 119.368 16.4588 120.232 15.7158C120.486 15.4977 120.873 15.5233 121.095 15.773C121.319 16.0226 121.293 16.4032 121.039 16.6213Z" fill="#FBFAF6"/>
</svg>
