<svg width="102" height="120" viewBox="0 0 102 120" fill="none" xmlns="http://www.w3.org/2000/svg">
<path d="M48.5317 118.529C71.1693 118.529 89.5207 112.244 89.5207 104.491C89.5207 96.7382 71.1693 90.4531 48.5317 90.4531C25.8941 90.4531 7.54272 96.7382 7.54272 104.491C7.54272 112.244 25.8941 118.529 48.5317 118.529Z" stroke="white" stroke-width="2" stroke-miterlimit="10" stroke-linecap="round" stroke-linejoin="round"/>
<path d="M7.54272 104.491C7.54272 104.491 57.0057 101.754 89.5197 104.491" stroke="white" stroke-width="2" stroke-miterlimit="10" stroke-linecap="round" stroke-linejoin="round" stroke-dasharray="2 5"/>
<path d="M48.5317 103.275C48.5317 103.275 45.8827 48.1071 49.9247 18.4531" stroke="white" stroke-width="2" stroke-miterlimit="10" stroke-linecap="round" stroke-linejoin="round"/>
<path d="M9.04968 100.722L49.9247 18.4531L88.0127 100.722" stroke="white" stroke-width="2" stroke-miterlimit="10" stroke-linecap="round" stroke-linejoin="round"/>
<path d="M1.41477 108.667H0.306818L3.51136 99.9397H4.60227L7.80682 108.667H6.69886L4.09091 101.32H4.02273L1.41477 108.667ZM1.82386 105.258H6.28977V106.195H1.82386V105.258Z" fill="white"/>
<path d="M95.0568 108.667V99.9397H98.108C98.7159 99.9397 99.2173 100.045 99.6122 100.255C100.007 100.462 100.301 100.742 100.494 101.095C100.688 101.444 100.784 101.832 100.784 102.258C100.784 102.633 100.717 102.943 100.584 103.187C100.453 103.431 100.28 103.624 100.064 103.766C99.8509 103.908 99.6193 104.014 99.3693 104.082V104.167C99.6364 104.184 99.9048 104.278 100.175 104.448C100.445 104.619 100.67 104.863 100.852 105.181C101.034 105.499 101.125 105.889 101.125 106.349C101.125 106.786 101.026 107.18 100.827 107.529C100.628 107.879 100.314 108.156 99.8849 108.36C99.456 108.565 98.8977 108.667 98.2102 108.667H95.0568ZM96.1136 107.729H98.2102C98.9006 107.729 99.3906 107.596 99.6804 107.329C99.973 107.059 100.119 106.732 100.119 106.349C100.119 106.053 100.044 105.781 99.8935 105.531C99.7429 105.278 99.5284 105.076 99.25 104.926C98.9716 104.772 98.642 104.695 98.2614 104.695H96.1136V107.729ZM96.1136 103.775H98.0739C98.392 103.775 98.679 103.712 98.9347 103.587C99.1932 103.462 99.3977 103.286 99.5483 103.059C99.7017 102.832 99.7784 102.565 99.7784 102.258C99.7784 101.874 99.6449 101.549 99.3778 101.282C99.1108 101.012 98.6875 100.877 98.108 100.877H96.1136V103.775Z" fill="white"/>
<path d="M48.2579 4.21023V3.27273H54.8033V4.21023H52.059V12H51.0022V4.21023H48.2579Z" fill="white"/>
<path d="M82.0079 56.8862C81.9568 56.4544 81.7494 56.1191 81.3857 55.8805C81.0221 55.6419 80.5761 55.5225 80.0477 55.5225C79.6613 55.5225 79.3232 55.585 79.0335 55.71C78.7465 55.835 78.5221 56.0069 78.3602 56.2257C78.2011 56.4444 78.1215 56.693 78.1215 56.9714C78.1215 57.2044 78.1769 57.4047 78.2877 57.5723C78.4014 57.737 78.5462 57.8748 78.7224 57.9856C78.8985 58.0936 79.0832 58.1831 79.2764 58.2541C79.4695 58.3223 79.6471 58.3777 79.809 58.4203L80.6954 58.6589C80.9227 58.7186 81.1755 58.801 81.4539 58.9061C81.7352 59.0112 82.0036 59.1547 82.2593 59.3365C82.5178 59.5154 82.7309 59.7456 82.8985 60.0268C83.0661 60.3081 83.1499 60.6532 83.1499 61.0623C83.1499 61.5339 83.0264 61.96 82.7792 62.3407C82.5349 62.7214 82.1769 63.024 81.7053 63.2484C81.2366 63.4728 80.667 63.585 79.9965 63.585C79.3715 63.585 78.8303 63.4842 78.3729 63.2825C77.9184 63.0808 77.5604 62.7995 77.2991 62.4387C77.0406 62.0779 76.8943 61.6589 76.8602 61.1816H77.9511C77.9795 61.5112 78.0903 61.7839 78.2835 61.9998C78.4795 62.2129 78.7266 62.372 79.0249 62.4771C79.3261 62.5794 79.6499 62.6305 79.9965 62.6305C80.3999 62.6305 80.7622 62.5652 81.0832 62.4345C81.4042 62.301 81.6585 62.1163 81.846 61.8805C82.0335 61.6419 82.1272 61.3635 82.1272 61.0453C82.1272 60.7555 82.0462 60.5197 81.8843 60.3379C81.7224 60.1561 81.5093 60.0083 81.2451 59.8947C80.9809 59.7811 80.6954 59.6816 80.3886 59.5964L79.3147 59.2896C78.6329 59.0936 78.0931 58.8137 77.6954 58.4501C77.2977 58.0865 77.0988 57.6106 77.0988 57.0225C77.0988 56.5339 77.2309 56.1078 77.4951 55.7441C77.7622 55.3777 78.1201 55.0936 78.569 54.8919C79.0207 54.6873 79.5249 54.585 80.0818 54.585C80.6443 54.585 81.1443 54.6859 81.5818 54.8876C82.0193 55.0865 82.3658 55.3592 82.6215 55.7058C82.88 56.0524 83.0164 56.4458 83.0306 56.8862H82.0079Z" fill="white"/>
<path d="M55.9454 60.3862V61.2385H52.5533V60.3862H55.9454ZM53.542 58.818H54.5477V65.0566C54.5477 65.3407 54.5889 65.5538 54.6712 65.6958C54.7565 65.835 54.8644 65.9288 54.9951 65.9771C55.1286 66.0225 55.2693 66.0453 55.417 66.0453C55.5278 66.0453 55.6187 66.0396 55.6897 66.0282C55.7607 66.014 55.8175 66.0027 55.8602 65.9941L56.0647 66.8975C55.9965 66.9231 55.9014 66.9487 55.7792 66.9743C55.657 67.0027 55.5022 67.0169 55.3147 67.0169C55.0306 67.0169 54.7522 66.9558 54.4795 66.8336C54.2096 66.7115 53.9852 66.5254 53.8062 66.2754C53.63 66.0254 53.542 65.71 53.542 65.3294V58.818Z" fill="white"/>
<path d="M60.0988 100.722V94.1767H61.0704V95.1653H61.1386C61.2579 94.8415 61.4738 94.5787 61.7863 94.377C62.0988 94.1753 62.4511 94.0744 62.8431 94.0744C62.917 94.0744 63.0093 94.0759 63.1201 94.0787C63.2309 94.0815 63.3147 94.0858 63.3715 94.0915V95.1142C63.3374 95.1057 63.2593 95.0929 63.1372 95.0759C63.0178 95.056 62.8914 95.046 62.7579 95.046C62.4397 95.046 62.1556 95.1128 61.9056 95.2463C61.6585 95.377 61.4624 95.5588 61.3175 95.7918C61.1755 96.0219 61.1045 96.2847 61.1045 96.5801V100.722H60.0988Z" fill="white"/>
<path d="M30.5988 100.722V94.1767H31.5704V95.1653H31.6386C31.7579 94.8415 31.9738 94.5787 32.2863 94.377C32.5988 94.1753 32.9511 94.0744 33.3431 94.0744C33.417 94.0744 33.5093 94.0759 33.6201 94.0787C33.7309 94.0815 33.8147 94.0858 33.8715 94.0915V95.1142C33.8374 95.1057 33.7593 95.0929 33.6372 95.0759C33.5178 95.056 33.3914 95.046 33.2579 95.046C32.9397 95.046 32.6556 95.1128 32.4056 95.2463C32.1585 95.377 31.9624 95.5588 31.8175 95.7918C31.6755 96.0219 31.6045 96.2847 31.6045 96.5801V100.722H30.5988Z" fill="white"/>
<path d="M24.1629 56.8867C24.1118 56.4549 23.9044 56.1196 23.5408 55.881C23.1771 55.6424 22.7311 55.523 22.2027 55.523C21.8163 55.523 21.4783 55.5855 21.1885 55.7105C20.9016 55.8355 20.6771 56.0074 20.5152 56.2262C20.3561 56.4449 20.2766 56.6935 20.2766 56.9719C20.2766 57.2049 20.332 57.4051 20.4427 57.5728C20.5564 57.7375 20.7013 57.8753 20.8774 57.9861C21.0535 58.0941 21.2382 58.1835 21.4314 58.2546C21.6246 58.3228 21.8021 58.3782 21.9641 58.4208L22.8504 58.6594C23.0777 58.7191 23.3305 58.8014 23.6089 58.9066C23.8902 59.0117 24.1587 59.1551 24.4143 59.337C24.6729 59.5159 24.8859 59.746 25.0535 60.0273C25.2212 60.3085 25.305 60.6537 25.305 61.0628C25.305 61.5344 25.1814 61.9605 24.9342 62.3412C24.6899 62.7219 24.332 63.0245 23.8604 63.2489C23.3916 63.4733 22.822 63.5855 22.1516 63.5855C21.5266 63.5855 20.9854 63.4847 20.528 63.283C20.0734 63.0813 19.7155 62.8 19.4541 62.4392C19.1956 62.0784 19.0493 61.6594 19.0152 61.1821H20.1061C20.1345 61.5117 20.2453 61.7844 20.4385 62.0003C20.6345 62.2134 20.8817 62.3725 21.18 62.4776C21.4811 62.5799 21.805 62.631 22.1516 62.631C22.555 62.631 22.9172 62.5657 23.2382 62.435C23.5592 62.3014 23.8135 62.1168 24.001 61.881C24.1885 61.6424 24.2822 61.3639 24.2822 61.0458C24.2822 60.756 24.2013 60.5202 24.0393 60.3384C23.8774 60.1566 23.6643 60.0088 23.4001 59.8952C23.1359 59.7816 22.8504 59.6821 22.5436 59.5969L21.4697 59.2901C20.7879 59.0941 20.2481 58.8142 19.8504 58.4506C19.4527 58.087 19.2538 57.6111 19.2538 57.023C19.2538 56.5344 19.3859 56.1083 19.6501 55.7446C19.9172 55.3782 20.2751 55.0941 20.724 54.8924C21.1757 54.6878 21.68 54.5855 22.2368 54.5855C22.7993 54.5855 23.2993 54.6864 23.7368 54.8881C24.1743 55.087 24.5209 55.3597 24.7766 55.7063C25.0351 56.0529 25.1714 56.4463 25.1856 56.8867H24.1629Z" fill="white"/>
</svg>
