<svg width="119" height="41" viewBox="0 0 119 41" fill="none" xmlns="http://www.w3.org/2000/svg">
<path d="M7.67701 14C7.67701 14 1.944 16.5278 1.062 25.9167C0.179999 35.3056 9 40 9 40" stroke="white" stroke-width="1.5" stroke-miterlimit="10" stroke-linecap="round" stroke-linejoin="round"/>
<path d="M41.323 14C41.323 14 47.056 16.5278 47.938 25.9167C48.82 35.3056 40 40 40 40" stroke="white" stroke-width="1.5" stroke-miterlimit="10" stroke-linecap="round" stroke-linejoin="round"/>
<path d="M79.677 14C79.677 14 73.944 16.5278 73.062 25.9167C72.18 35.3056 81 40 81 40" stroke="white" stroke-width="1.5" stroke-miterlimit="10" stroke-linecap="round" stroke-linejoin="round"/>
<path d="M111.323 14C111.323 14 117.056 16.5278 117.938 25.9167C118.82 35.3056 110 40 110 40" stroke="white" stroke-width="1.5" stroke-miterlimit="10" stroke-linecap="round" stroke-linejoin="round"/>
<path d="M16.0495 29.6111C16.0929 29.6979 16.1146 29.7847 16.1146 29.8715C16.1146 30.0885 16.0422 30.2911 15.8976 30.4792C15.7529 30.6528 15.601 30.7396 15.4418 30.7396C15.2827 30.7396 14.921 30.4792 14.3568 29.9583C14.1398 29.6256 13.9517 29.3796 13.7925 29.2205C13.6334 29.0469 13.4742 28.8877 13.3151 28.7431C13.1704 28.5984 13.0113 28.4392 12.8377 28.2656C12.6641 28.0775 12.4398 27.8027 12.1649 27.441L11.0799 28.7865C10.8773 29.1192 10.7037 29.3941 10.559 29.6111C10.4288 29.8281 10.3058 30.0307 10.1901 30.2187C10.0888 30.4068 9.98032 30.5949 9.86458 30.783C9.74884 30.9566 9.60417 31.1664 9.43056 31.4123C9.32928 31.5136 9.18461 31.5642 8.99653 31.5642C8.79398 31.5642 8.61314 31.5064 8.45399 31.3906C8.30932 31.2894 8.23698 31.1519 8.23698 30.9783C8.23698 30.906 8.26591 30.8119 8.32379 30.6962C8.39612 30.566 8.47569 30.4358 8.5625 30.3056C8.64931 30.1609 8.73611 30.0162 8.82292 29.8715C8.90972 29.7269 8.97483 29.5894 9.01823 29.4592C9.16291 29.2277 9.30035 29.0252 9.43056 28.8516C9.56076 28.6635 9.70544 28.4682 9.86458 28.2656C10.0237 28.0486 10.2118 27.8027 10.4288 27.5278C10.6458 27.2384 10.9063 26.884 11.2101 26.4644C11.0509 26.3631 10.9207 26.2691 10.8194 26.1823C10.7182 26.081 10.5952 25.9653 10.4505 25.8351C10.3058 25.7049 10.125 25.553 9.90799 25.3793C9.69097 25.1913 9.38715 24.967 8.99653 24.7066C8.70718 24.504 8.4974 24.3449 8.36719 24.2292C8.25145 24.099 8.19358 23.947 8.19358 23.7734C8.19358 23.2815 8.42506 23.0356 8.88802 23.0356C9.01823 23.0356 9.13397 23.0645 9.23524 23.1224L10.3854 24.0122C10.4433 24.099 10.559 24.2219 10.7326 24.3811C10.9207 24.5258 11.1088 24.6704 11.2969 24.8151C11.4994 24.9598 11.673 25.09 11.8177 25.2057C11.9769 25.307 12.0637 25.3649 12.0781 25.3793C12.2662 25.2347 12.4253 25.09 12.5556 24.9453C12.7002 24.7862 12.816 24.6487 12.9028 24.533C13.0041 24.4172 13.0764 24.3232 13.1198 24.2509C13.1632 24.1785 13.1849 24.1496 13.1849 24.1641C13.4742 23.7445 13.7057 23.4479 13.8793 23.2743C14.0674 23.0862 14.241 22.9922 14.4002 22.9922C14.8631 22.9922 15.0946 23.1947 15.0946 23.5998C15.0946 23.8168 14.9355 24.1279 14.6172 24.533L13.684 25.7049L13.0764 26.3559C13.3657 26.7465 13.8649 27.2963 14.5738 28.0052L16.0495 29.6111ZM29.7307 24.3491C29.6477 24.4488 29.465 24.5401 29.1827 24.6231C28.9004 24.6896 28.6098 24.7477 28.3108 24.7975C28.0119 24.8473 27.7462 24.8805 27.5137 24.8971C27.2978 24.9138 27.2065 24.9138 27.2397 24.8971C27.2231 24.8971 27.1069 24.9055 26.891 24.9221C26.6751 24.9387 26.4011 24.947 26.069 24.947C26.0025 24.947 25.9361 24.947 25.8697 24.947C25.8033 24.947 25.7451 24.9387 25.6953 24.9221C25.6953 25.4701 25.6953 25.9849 25.6953 26.4665C25.7119 26.948 25.6953 27.3715 25.6455 27.7368C25.6123 28.0856 25.5293 28.3679 25.3964 28.5838C25.2636 28.783 25.0477 28.8827 24.7488 28.8827C24.5163 28.8827 24.3087 28.8412 24.126 28.7581C23.96 28.6585 23.8769 28.426 23.8769 28.0607C23.8769 27.8448 23.8852 27.5874 23.9018 27.2885C23.9351 26.9729 23.9849 26.6159 24.0513 26.2174C24.0347 26.1675 24.0264 26.0679 24.0264 25.9184C24.0264 25.6195 24.0347 25.3621 24.0513 25.1462C24.0845 24.9304 24.1011 24.8141 24.1011 24.7975C23.8188 24.7809 23.5614 24.7726 23.3289 24.7726C23.0964 24.7726 22.8639 24.7726 22.6314 24.7726C21.8509 24.7726 21.2531 24.7975 20.838 24.8473C20.2235 24.7809 19.9163 24.4903 19.9163 23.9755C19.9163 23.5105 20.1488 23.278 20.6138 23.278C21.2614 23.278 21.743 23.2946 22.0585 23.3278C22.3907 23.3444 22.6647 23.3528 22.8805 23.3528C23.0632 23.3528 23.2542 23.3528 23.4535 23.3528C23.6527 23.3361 23.8603 23.3195 24.0762 23.3029C24.0596 23.0704 24.043 22.8712 24.0264 22.7051C24.0264 22.5224 24.0264 22.3647 24.0264 22.2318C24.0264 21.9163 24.0513 21.717 24.1011 21.634C24.1011 21.2354 24.043 20.6957 23.9267 20.0149C24.0098 19.4835 24.3004 19.2178 24.7986 19.2178C25.0477 19.2178 25.2303 19.2759 25.3466 19.3921C25.4628 19.5084 25.5459 19.6993 25.5957 19.965C25.6455 20.2141 25.6787 20.5463 25.6953 20.9614C25.7119 21.3766 25.7368 21.8831 25.7701 22.4809V23.3777C25.9361 23.3611 26.1354 23.3444 26.3679 23.3278C26.6004 23.3112 26.8827 23.2863 27.2148 23.2531C27.2812 23.2863 27.3892 23.3029 27.5386 23.3029C27.7545 23.3029 27.9621 23.2946 28.1614 23.278C28.3607 23.2614 28.535 23.2448 28.6845 23.2282C28.8505 23.195 28.9751 23.1701 29.0581 23.1535C29.1412 23.1369 29.1744 23.1369 29.1578 23.1535C29.5895 23.2033 29.8054 23.4607 29.8054 23.9257C29.8054 24.0917 29.7805 24.2329 29.7307 24.3491ZM43.135 23.4026C43.1184 23.7347 43.0768 24.0336 43.0104 24.2993C42.944 24.5484 42.8444 24.8058 42.7115 25.0715C42.5953 25.3372 42.4541 25.6278 42.288 25.9434C42.1386 26.2423 41.9725 26.6159 41.7898 27.0643C41.6902 27.7119 41.4992 28.3098 41.2169 28.8578C40.9512 29.4058 40.6523 29.9289 40.3202 30.4271C40.0047 30.9253 39.6891 31.4069 39.3736 31.8718C39.0581 32.3534 38.8173 32.8433 38.6512 33.3415C38.3855 33.7068 38.178 34.0224 38.0285 34.2881C37.879 34.5704 37.7379 34.8361 37.605 35.0852C37.4722 35.3343 37.3144 35.5834 37.1318 35.8325C36.9491 36.0982 36.6834 36.4054 36.3346 36.7541C36.235 36.7873 36.1354 36.8039 36.0357 36.8039C35.8198 36.8039 35.6123 36.7375 35.413 36.6047C35.2303 36.4884 35.139 36.339 35.139 36.1563C35.139 36.0566 35.1722 35.9653 35.2386 35.8823L36.8577 33.4661C36.9076 33.3166 37.0072 33.1007 37.1567 32.8184C37.3061 32.5361 37.4722 32.2289 37.6549 31.8967C37.8375 31.5646 38.0119 31.2408 38.178 30.9253C38.344 30.5931 38.452 30.3274 38.5018 30.1282C38.3855 30.0617 38.2444 29.9538 38.0783 29.8043C37.9123 29.6383 37.7379 29.4722 37.5552 29.3061C37.3725 29.1235 37.1899 28.9574 37.0072 28.808C36.8411 28.6419 36.6834 28.5256 36.5339 28.4592C36.235 28.0441 35.9942 27.7618 35.8115 27.6123C35.6455 27.4462 35.4711 27.2802 35.2884 27.1141C35.1058 26.948 34.8899 26.7072 34.6408 26.3917C34.4083 26.0596 34.0679 25.5199 33.6195 24.7726C33.6029 24.7394 33.5946 24.6896 33.5946 24.6231C33.5946 24.4073 33.6693 24.1997 33.8188 24.0004C33.9848 23.8011 34.1841 23.7015 34.4166 23.7015C34.5827 23.7015 34.7903 23.826 35.0393 24.0751C35.2884 24.3242 35.5292 24.6065 35.7617 24.9221C36.0108 25.221 36.235 25.5116 36.4343 25.7939C36.6336 26.0596 36.7581 26.2257 36.8079 26.2921C36.9076 26.3917 37.057 26.5578 37.2563 26.7903C37.4722 27.0228 37.7047 27.2636 37.9538 27.5127C38.2029 27.7618 38.4437 27.9942 38.6761 28.2101C38.9252 28.426 39.1245 28.5672 39.274 28.6336C39.4068 28.4675 39.5812 28.1022 39.7971 27.5376C40.0296 26.9563 40.2704 26.3585 40.5195 25.7441C40.7021 25.2791 40.9014 24.8141 41.1173 24.3491C41.3498 23.8676 41.4826 23.4358 41.5158 23.0538C41.7982 22.8712 42.0722 22.7798 42.3379 22.7798C42.8028 22.7798 43.0685 22.9874 43.135 23.4026ZM66.7388 24.7975C66.5561 24.8473 66.3651 24.8722 66.1658 24.8722C66.0662 24.8722 65.9333 24.8639 65.7673 24.8473C65.6178 24.8307 65.4518 24.8141 65.2691 24.7975C65.103 24.7809 64.9287 24.7643 64.746 24.7477C64.5799 24.7311 64.4388 24.7228 64.3225 24.7228C64.3225 24.7394 64.1648 24.7394 63.8492 24.7228C63.5503 24.6896 63.0937 24.673 62.4792 24.673C62.0641 24.673 61.8067 24.7228 61.707 24.8224C61.3915 24.839 61.0012 24.8639 60.5363 24.8971C60.0879 24.9304 59.5648 24.9636 58.967 24.9968C58.3691 24.947 58.0702 24.6896 58.0702 24.2246C58.0702 24.0585 58.0868 23.9091 58.12 23.7762C58.1533 23.6434 58.2612 23.5354 58.4439 23.4524C58.6265 23.3694 58.9088 23.3029 59.2908 23.2531C59.6893 23.2033 60.2374 23.1701 60.9348 23.1535C61.0179 23.1535 61.1092 23.1618 61.2088 23.1784C61.3251 23.1784 61.4496 23.1784 61.5825 23.1784C62.2467 23.1784 63.1435 23.1535 64.2727 23.1037C64.6048 23.1203 64.9536 23.1452 65.3189 23.1784C65.7009 23.2116 66.1077 23.2531 66.5395 23.3029C66.855 23.552 67.0128 23.8343 67.0128 24.1499C67.0128 24.3657 66.9214 24.5816 66.7388 24.7975Z" fill="white"/>
<path d="M85.6745 29.5066C85.7179 29.5934 85.7396 29.6802 85.7396 29.767C85.7396 29.984 85.6672 30.1866 85.5226 30.3747C85.3779 30.5483 85.226 30.6351 85.0668 30.6351C84.9077 30.6351 84.546 30.3747 83.9818 29.8538C83.7648 29.5211 83.5767 29.2751 83.4175 29.116C83.2584 28.9424 83.0992 28.7832 82.9401 28.6386C82.7954 28.4939 82.6363 28.3347 82.4627 28.1611C82.2891 27.9731 82.0648 27.6982 81.7899 27.3365L80.7049 28.682C80.5023 29.0147 80.3287 29.2896 80.184 29.5066C80.0538 29.7236 79.9308 29.9262 79.8151 30.1143C79.7138 30.3023 79.6053 30.4904 79.4896 30.6785C79.3738 30.8521 79.2292 31.0619 79.0556 31.3078C78.9543 31.4091 78.8096 31.4597 78.6215 31.4597C78.419 31.4597 78.2381 31.4019 78.079 31.2861C77.9343 31.1849 77.862 31.0474 77.862 30.8738C77.862 30.8015 77.8909 30.7074 77.9488 30.5917C78.0211 30.4615 78.1007 30.3313 78.1875 30.2011C78.2743 30.0564 78.3611 29.9117 78.4479 29.767C78.5347 29.6224 78.5998 29.4849 78.6432 29.3547C78.7879 29.1232 78.9253 28.9207 79.0556 28.7471C79.1858 28.559 79.3304 28.3637 79.4896 28.1611C79.6487 27.9441 79.8368 27.6982 80.0538 27.4233C80.2708 27.1339 80.5313 26.7795 80.8351 26.3599C80.6759 26.2586 80.5457 26.1646 80.4444 26.0778C80.3432 25.9765 80.2202 25.8608 80.0755 25.7306C79.9308 25.6004 79.75 25.4485 79.533 25.2748C79.316 25.0868 79.0122 24.8625 78.6215 24.6021C78.3322 24.3996 78.1224 24.2404 77.9922 24.1247C77.8764 23.9945 77.8186 23.8426 77.8186 23.6689C77.8186 23.177 78.0501 22.9311 78.513 22.9311C78.6432 22.9311 78.759 22.96 78.8602 23.0179L80.0104 23.9077C80.0683 23.9945 80.184 24.1174 80.3576 24.2766C80.5457 24.4213 80.7338 24.5659 80.9219 24.7106C81.1244 24.8553 81.298 24.9855 81.4427 25.1012C81.6019 25.2025 81.6887 25.2604 81.7031 25.2748C81.8912 25.1302 82.0503 24.9855 82.1806 24.8408C82.3252 24.6817 82.441 24.5442 82.5278 24.4285C82.6291 24.3128 82.7014 24.2187 82.7448 24.1464C82.7882 24.074 82.8099 24.0451 82.8099 24.0596C83.0992 23.64 83.3307 23.3434 83.5043 23.1698C83.6924 22.9817 83.866 22.8877 84.0252 22.8877C84.4881 22.8877 84.7196 23.0902 84.7196 23.4953C84.7196 23.7123 84.5605 24.0234 84.2422 24.4285L83.309 25.6004L82.7014 26.2514C82.9907 26.642 83.4899 27.1918 84.1988 27.9007L85.6745 29.5066ZM98.6831 24.693C98.5005 24.7428 98.3095 24.7677 98.1102 24.7677C98.0106 24.7677 97.8777 24.7594 97.7117 24.7428C97.5622 24.7262 97.3961 24.7096 97.2135 24.693C97.0474 24.6764 96.873 24.6598 96.6904 24.6432C96.5243 24.6266 96.3831 24.6183 96.2669 24.6183C96.2669 24.6349 96.1091 24.6349 95.7936 24.6183C95.4947 24.5851 95.038 24.5685 94.4236 24.5685C94.0084 24.5685 93.751 24.6183 93.6514 24.7179C93.3359 24.7345 92.9456 24.7594 92.4806 24.7927C92.0323 24.8259 91.5092 24.8591 90.9113 24.8923C90.3135 24.8425 90.0146 24.5851 90.0146 24.1201C90.0146 23.954 90.0312 23.8046 90.0644 23.6717C90.0976 23.5389 90.2056 23.4309 90.3882 23.3479C90.5709 23.2649 90.8532 23.1984 91.2352 23.1486C91.6337 23.0988 92.1817 23.0656 92.8792 23.049C92.9622 23.049 93.0536 23.0573 93.1532 23.0739C93.2694 23.0739 93.394 23.0739 93.5268 23.0739C94.1911 23.0739 95.0878 23.049 96.2171 22.9992C96.5492 23.0158 96.8979 23.0407 97.2633 23.0739C97.6452 23.1071 98.0521 23.1486 98.4838 23.1984C98.7994 23.4475 98.9571 23.7298 98.9571 24.0454C98.9571 24.2613 98.8658 24.4771 98.6831 24.693ZM112.76 23.2981C112.743 23.6302 112.702 23.9291 112.635 24.1948C112.569 24.4439 112.469 24.7013 112.337 24.967C112.22 25.2327 112.079 25.5233 111.913 25.8389C111.764 26.1378 111.598 26.5114 111.415 26.9598C111.315 27.6074 111.124 28.2053 110.842 28.7533C110.576 29.3013 110.277 29.8244 109.945 30.3226C109.63 30.8208 109.314 31.3024 108.999 31.7673C108.683 32.2489 108.442 32.7388 108.276 33.237C108.011 33.6024 107.803 33.9179 107.653 34.1836C107.504 34.4659 107.363 34.7316 107.23 34.9807C107.097 35.2298 106.939 35.4789 106.757 35.728C106.574 35.9937 106.308 36.3009 105.96 36.6496C105.86 36.6828 105.76 36.6994 105.661 36.6994C105.445 36.6994 105.237 36.633 105.038 36.5002C104.855 36.3839 104.764 36.2345 104.764 36.0518C104.764 35.9522 104.797 35.8608 104.864 35.7778L106.483 33.3616C106.533 33.2121 106.632 32.9962 106.782 32.7139C106.931 32.4316 107.097 32.1244 107.28 31.7923C107.463 31.4601 107.637 31.1363 107.803 30.8208C107.969 30.4887 108.077 30.2229 108.127 30.0237C108.011 29.9572 107.869 29.8493 107.703 29.6998C107.537 29.5338 107.363 29.3677 107.18 29.2017C106.998 29.019 106.815 28.8529 106.632 28.7035C106.466 28.5374 106.308 28.4212 106.159 28.3547C105.86 27.9396 105.619 27.6573 105.437 27.5078C105.27 27.3417 105.096 27.1757 104.913 27.0096C104.731 26.8435 104.515 26.6028 104.266 26.2872C104.033 25.9551 103.693 25.4154 103.244 24.6681C103.228 24.6349 103.22 24.5851 103.22 24.5187C103.22 24.3028 103.294 24.0952 103.444 23.8959C103.61 23.6966 103.809 23.597 104.042 23.597C104.208 23.597 104.415 23.7215 104.664 23.9706C104.913 24.2197 105.154 24.502 105.387 24.8176C105.636 25.1165 105.86 25.4071 106.059 25.6894C106.259 25.9551 106.383 26.1212 106.433 26.1876C106.533 26.2872 106.682 26.4533 106.881 26.6858C107.097 26.9183 107.33 27.1591 107.579 27.4082C107.828 27.6573 108.069 27.8897 108.301 28.1056C108.55 28.3215 108.75 28.4627 108.899 28.5291C109.032 28.363 109.206 27.9977 109.422 27.4331C109.655 26.8518 109.895 26.254 110.144 25.6396C110.327 25.1746 110.526 24.7096 110.742 24.2446C110.975 23.7631 111.108 23.3313 111.141 22.9493C111.423 22.7667 111.697 22.6753 111.963 22.6753C112.428 22.6753 112.694 22.8829 112.76 23.2981Z" fill="white"/>
<path d="M51.9796 10.7934C51.8581 10.7853 51.7649 10.7813 51.7001 10.7813C51.6434 10.7732 51.5948 10.7691 51.5543 10.7691C51.5219 10.7691 51.4895 10.7691 51.4571 10.7691C51.4247 10.7691 51.3761 10.7691 51.3113 10.7691C51.2465 10.7691 51.1777 10.7732 51.1048 10.7813C51.0319 10.7813 50.9549 10.7813 50.8739 10.7813C50.6714 10.7813 50.4243 10.7327 50.1327 10.6355C50.0517 10.6355 49.9626 10.6355 49.8654 10.6355C49.7682 10.6355 49.6629 10.6395 49.5495 10.6476C49.4604 10.6314 49.3348 10.6112 49.1728 10.5869C49.0108 10.5626 48.8164 10.5342 48.5896 10.5018C48.4519 10.3641 48.383 10.2345 48.383 10.113C48.383 9.9996 48.4114 9.88215 48.4681 9.76064C48.7435 9.48523 48.9501 9.26247 49.0878 9.09236C49.2255 8.92225 49.3429 8.77239 49.4401 8.64279C49.5373 8.50508 49.6386 8.37142 49.7439 8.24182C49.8492 8.10411 50.0031 7.934 50.2056 7.73149C50.238 7.69909 50.2826 7.64239 50.3393 7.56139C50.396 7.48038 50.4567 7.39128 50.5215 7.29407C50.5944 7.18877 50.6673 7.08751 50.7402 6.99031C50.8131 6.8931 50.8739 6.8121 50.9225 6.7473C51.1736 6.46378 51.2992 6.14382 51.2992 5.7874C51.2992 5.61729 51.2546 5.47959 51.1655 5.37428C51.0845 5.26898 50.9265 5.21632 50.6916 5.21632C50.2785 5.21632 49.9302 5.31353 49.6467 5.50794C49.3632 5.69425 49.1404 5.94131 48.9784 6.24912C48.8974 6.41113 48.8326 6.53264 48.784 6.61364C48.7435 6.69464 48.707 6.7554 48.6746 6.7959C48.6422 6.8364 48.6098 6.8607 48.5774 6.8688C48.545 6.8688 48.5005 6.8688 48.4438 6.8688C48.3385 6.8688 48.2413 6.8283 48.1522 6.7473C48.0631 6.65819 48.0185 6.54884 48.0185 6.41923C48.0185 6.33823 48.0509 6.22482 48.1157 6.07901C48.1886 5.92511 48.2737 5.77525 48.3709 5.62944C48.4762 5.47554 48.5815 5.33783 48.6868 5.21632C48.8002 5.09482 48.8974 5.01786 48.9784 4.98546C49.5211 4.66955 50.1368 4.51159 50.8253 4.51159C51.0683 4.51159 51.2708 4.54804 51.4328 4.62095C51.6029 4.69385 51.7366 4.79105 51.8338 4.91256C51.931 5.03407 51.9998 5.17987 52.0404 5.34998C52.0809 5.51199 52.1011 5.68615 52.1011 5.87246C52.1011 6.34228 51.9553 6.73515 51.6637 7.05106C51.5746 7.14827 51.4936 7.24952 51.4207 7.35483C51.3478 7.46013 51.2789 7.56544 51.2141 7.67074C51.1493 7.76795 51.0886 7.85705 51.0319 7.93805C50.9833 8.01906 50.9427 8.07576 50.9103 8.10816C50.8779 8.12436 50.8293 8.16891 50.7645 8.24182C50.6997 8.30662 50.6228 8.39168 50.5337 8.49698C50.4527 8.60229 50.3636 8.72379 50.2664 8.8615C50.1773 8.9911 50.0882 9.12071 49.9991 9.25032C49.6831 9.50953 49.4928 9.70799 49.428 9.84569C49.6467 9.8619 49.914 9.8862 50.2299 9.9186C50.3595 9.9672 50.4891 9.9915 50.6187 9.9915C50.7078 9.9915 50.7888 9.97935 50.8617 9.95505C50.9022 9.95505 50.9468 9.9591 50.9954 9.9672C51.044 9.9672 51.0967 9.9672 51.1534 9.9672C51.2911 9.9672 51.4409 9.96315 51.6029 9.95505C51.7649 9.94695 51.9431 9.9429 52.1376 9.9429C52.2105 9.9429 52.2753 9.99555 52.332 10.1009C52.3887 10.1981 52.417 10.3034 52.417 10.4168C52.417 10.5869 52.3684 10.6922 52.2712 10.7327C52.174 10.7732 52.0768 10.7934 51.9796 10.7934Z" fill="white"/>
</svg>
