<svg width="137" height="36" viewBox="0 0 137 36" fill="none" xmlns="http://www.w3.org/2000/svg">
<path d="M12.0264 12.4714C11.9093 12.756 11.8088 12.9736 11.7251 13.1242C11.6415 13.2581 11.5243 13.4088 11.3736 13.5761C11.2397 13.7435 11.0472 13.9528 10.7962 14.2038C10.5618 14.4382 10.2187 14.798 9.76677 15.2834C9.41527 15.6517 9.12235 15.9613 8.88801 16.2124C8.65368 16.4635 8.41934 16.6978 8.185 16.9154C7.96741 17.1163 7.74144 17.3255 7.50711 17.5431C7.27277 17.744 6.97985 17.995 6.62835 18.2963C6.62835 18.5641 6.61998 18.8905 6.60324 19.2755C6.5865 19.6605 6.57813 20.1041 6.57813 20.6062C6.57813 20.7401 6.5865 20.9159 6.60324 21.1335C6.61998 21.3343 6.63672 21.5436 6.65345 21.7611C6.68693 21.9787 6.71204 22.188 6.72878 22.3888C6.74551 22.5897 6.75388 22.7403 6.75388 22.8408V22.9914C6.77062 23.3262 6.78736 23.6777 6.8041 24.0459C6.82084 24.4142 6.84594 24.7991 6.87942 25.2009C6.81247 25.5189 6.55302 25.6779 6.10109 25.6779C5.86676 25.6779 5.68264 25.6026 5.54873 25.4519C5.41482 25.3013 5.31439 25.1004 5.24744 24.8494C5.18049 24.5815 5.13027 24.2803 5.0968 23.9455C5.08006 23.6107 5.07169 23.2592 5.07169 22.891C5.07169 22.7571 5.07169 22.6315 5.07169 22.5144C5.08843 22.3972 5.10517 22.2968 5.1219 22.2131C5.02148 20.8573 4.97126 19.8195 4.97126 19.0998V18.698C4.68671 18.4135 4.33521 18.0453 3.91675 17.5933C3.51503 17.1247 3.02962 16.5723 2.46052 15.9362C2.37683 15.7354 2.24293 15.5094 2.0588 15.2583C1.87468 15.0073 1.68219 14.7646 1.48134 14.5302C1.29721 14.2959 1.12983 14.0783 0.979188 13.8774C0.828543 13.6766 0.753221 13.5259 0.753221 13.4255C0.753221 13.2414 0.836913 13.0489 1.0043 12.848C1.18842 12.6304 1.39764 12.5216 1.63198 12.5216C1.95001 12.5216 2.25966 12.7476 2.56095 13.1995C2.86224 13.6347 3.23885 14.2038 3.69078 14.9068C3.741 14.9403 3.85817 15.0575 4.04229 15.2583C4.24315 15.4592 4.45237 15.6768 4.66997 15.9111C4.90431 16.1287 5.1219 16.338 5.32276 16.5388C5.54036 16.7397 5.68264 16.8485 5.74959 16.8652C5.7998 16.8485 5.91697 16.7648 6.10109 16.6141C6.28521 16.4635 6.48607 16.2961 6.70367 16.112C6.938 15.9279 7.1556 15.7521 7.35646 15.5847C7.57406 15.4174 7.71633 15.3086 7.78329 15.2583C7.8335 15.2249 7.90045 15.1412 7.98415 15.0073C8.08457 14.8734 8.19337 14.7227 8.31054 14.5553C8.42771 14.3712 8.55325 14.1955 8.68715 14.0281C8.8378 13.844 8.98844 13.7017 9.13908 13.6013L10.0429 12.2957C10.3945 11.7935 10.7292 11.4588 11.0472 11.2914C11.1142 11.3248 11.1979 11.3834 11.2983 11.4671C11.4155 11.5508 11.5243 11.6429 11.6247 11.7433C11.7419 11.8437 11.8339 11.9609 11.9009 12.0948C11.9846 12.212 12.0264 12.3208 12.0264 12.4212V12.4714ZM23.9589 16.3631C23.7748 16.4133 23.5823 16.4384 23.3814 16.4384C23.0969 16.4384 22.8626 16.43 22.6784 16.4133C22.5111 16.3965 22.3186 16.3798 22.101 16.3631C21.9001 16.3296 21.6239 16.3045 21.2724 16.2877C20.9377 16.2543 20.4606 16.2375 19.8413 16.2375C19.4731 16.2375 19.2387 16.2877 19.1383 16.3882C18.8537 16.4049 18.5022 16.43 18.0838 16.4635C17.6821 16.497 17.1967 16.5304 16.6276 16.5639C16.025 16.5137 15.7237 16.2543 15.7237 15.7856C15.7237 15.6015 15.7488 15.4425 15.799 15.3086C15.866 15.1746 15.9915 15.0658 16.1756 14.9822C16.3597 14.8985 16.6192 14.8399 16.954 14.8064C17.3055 14.7562 17.7741 14.7227 18.36 14.706C18.4437 14.706 18.5273 14.7143 18.611 14.7311C18.7115 14.7311 18.8203 14.7311 18.9374 14.7311C19.54 14.7311 20.3853 14.706 21.4733 14.6558C21.808 14.6725 22.1595 14.6976 22.5278 14.7311C22.9128 14.7646 23.3229 14.8064 23.758 14.8566C24.0761 15.1077 24.2351 15.3922 24.2351 15.7103C24.2351 15.9279 24.143 16.1455 23.9589 16.3631ZM23.984 21.1586C23.7832 21.2088 23.5572 21.2506 23.3061 21.2841C23.0718 21.3008 22.7538 21.3176 22.352 21.3343C21.9671 21.3343 21.4649 21.3427 20.8456 21.3594C20.243 21.3594 19.4647 21.3678 18.5106 21.3845C17.5733 21.4348 16.9037 21.4599 16.502 21.4599C16.1338 21.4599 15.8911 21.3678 15.7739 21.1837C15.6567 20.9828 15.5982 20.782 15.5982 20.5811C15.5982 20.4137 15.6233 20.2798 15.6735 20.1794C15.7237 20.079 15.8409 20.0036 16.025 19.9534C16.2091 19.8865 16.4936 19.8446 16.8786 19.8279C17.2636 19.7944 17.7909 19.7693 18.4604 19.7526C18.4604 19.7358 18.611 19.7442 18.9123 19.7777C19.2304 19.7944 19.699 19.8028 20.3183 19.8028C20.7368 19.8028 20.9962 19.7526 21.0967 19.6521L23.7329 19.5768C24.2853 19.627 24.5615 19.8446 24.5615 20.2296C24.5615 20.5476 24.369 20.8573 23.984 21.1586ZM37.6203 22.665C37.2855 23.3513 36.7833 23.8785 36.1138 24.2468C35.461 24.5983 34.6409 24.774 33.6533 24.774C33.4357 24.774 33.0842 24.7322 32.5988 24.6485C32.1134 24.5648 31.6196 24.3891 31.1175 24.1212C30.6153 23.8367 30.1717 23.4517 29.7868 22.9663C29.4185 22.4642 29.2344 21.7946 29.2344 20.9577C29.2344 20.2212 29.3432 19.5182 29.5608 18.8487C29.7784 18.1624 30.155 17.5096 30.6906 16.8903C31.0421 16.4886 31.3518 16.1622 31.6196 15.9111C31.8874 15.6433 32.1469 15.4425 32.3979 15.3086C32.6657 15.1746 32.9503 15.0826 33.2516 15.0324C33.5696 14.9822 33.9546 14.9571 34.4065 14.9571C34.9087 14.9571 35.302 14.9905 35.5866 15.0575C35.8711 15.1077 36.0887 15.183 36.2394 15.2834C36.39 15.3671 36.4821 15.4759 36.5155 15.6098C36.5658 15.727 36.5909 15.8609 36.5909 16.0116C36.5909 16.5807 36.2561 16.8652 35.5866 16.8652C35.6033 16.8652 35.5615 16.8568 35.461 16.8401C35.3606 16.8066 35.2351 16.7731 35.0844 16.7397C34.9338 16.6895 34.7748 16.656 34.6074 16.6392C34.44 16.6058 34.2893 16.589 34.1554 16.589C33.67 16.589 33.1344 16.8234 32.5486 17.292C31.9795 17.744 31.5275 18.4553 31.1928 19.4262C31.0923 19.7107 31.017 19.9702 30.9668 20.2045C30.9333 20.4221 30.9166 20.6062 30.9166 20.7569C30.9166 21.2925 31.0589 21.7277 31.3434 22.0624C31.6447 22.3805 31.9795 22.6315 32.3477 22.8157C32.7327 22.983 33.0926 23.1002 33.4273 23.1672C33.7621 23.2174 33.9713 23.2425 34.055 23.2425C34.3396 23.2425 34.6157 23.1672 34.8836 23.0165C35.1681 22.8659 35.4192 22.7069 35.6368 22.5395C35.8544 22.3554 36.0301 22.188 36.164 22.0373C36.3147 21.8867 36.39 21.8114 36.39 21.8114C36.5239 21.6942 36.6746 21.6356 36.8419 21.6356C37.0595 21.6356 37.2437 21.736 37.3943 21.9369C37.5449 22.1378 37.6203 22.3386 37.6203 22.5395V22.665ZM46.7282 24.4225C46.4101 24.6401 45.5648 24.8912 44.1923 25.1758L43.1378 24.9749C43.0039 24.9247 42.7612 24.7991 42.4097 24.5983C42.0749 24.3974 41.7234 24.1045 41.3552 23.7195C41.0037 23.3345 40.6856 22.8491 40.4011 22.2633C40.1333 21.6775 39.9994 20.9828 39.9994 20.1794C39.9994 19.5266 40.1835 18.9491 40.5517 18.447C40.92 17.9281 41.4807 17.3757 42.2339 16.7899C42.6357 16.6895 43.029 16.6392 43.414 16.6392C44.5354 16.6392 45.5648 17.0159 46.5022 17.7691C47.3056 18.8738 47.7073 20.0873 47.7073 21.4096C47.7073 22.4474 47.3809 23.4517 46.7282 24.4225ZM44.4434 18.2963C44.1923 18.1792 43.9245 18.1206 43.6399 18.1206C43.4391 18.1206 43.2215 18.1708 42.9872 18.2712C42.7696 18.3717 42.5603 18.5223 42.3595 18.7232C42.1754 18.924 42.0247 19.1835 41.9075 19.5015C41.7904 19.8028 41.7318 20.1626 41.7318 20.5811C41.7318 20.9159 41.7736 21.2506 41.8573 21.5854C41.9578 21.9202 42.1 22.2298 42.2842 22.5144C42.485 22.7989 42.7361 23.0333 43.0374 23.2174C43.3387 23.3848 43.6985 23.4685 44.117 23.4685C44.502 23.4685 44.9372 23.368 45.4226 23.1672C45.841 22.6483 46.0503 22.029 46.0503 21.3092C46.0503 19.7191 45.5146 18.7148 44.4434 18.2963ZM57.5463 22.2633C57.4961 22.7487 57.3203 23.209 57.019 23.6442L56.1152 24.9247C55.9645 25.0586 55.7302 25.1674 55.4122 25.2511C55.0941 25.3515 54.7677 25.4268 54.433 25.477C54.115 25.544 53.822 25.5942 53.5542 25.6277C53.3032 25.6612 53.1692 25.6779 53.1525 25.6779C52.9851 25.6779 52.7675 25.6444 52.4997 25.5775C52.2486 25.5273 51.9976 25.4687 51.7465 25.4017C51.4954 25.3348 51.2778 25.2678 51.0937 25.2009C50.9096 25.1506 50.8092 25.1255 50.7924 25.1255H50.7673C50.5832 25.1088 50.3823 25.067 50.1647 25C49.9639 24.933 49.763 24.8494 49.5622 24.7489C49.378 24.6485 49.2274 24.5397 49.1102 24.4225C48.9763 24.2886 48.9094 24.1463 48.9094 23.9957C48.9094 23.8116 49.0014 23.6275 49.1855 23.4433C49.3697 23.2425 49.5538 23.1421 49.7379 23.1421C51.4285 23.8116 52.7759 24.1463 53.7802 24.1463C54.1484 24.1463 54.4581 24.071 54.7092 23.9204C54.977 23.7697 55.1778 23.6107 55.3117 23.4433L55.839 22.4893C55.839 22.2717 55.772 22.0541 55.6381 21.8365C55.521 21.6189 55.3536 21.4264 55.136 21.259C54.9351 21.0749 54.7008 20.9159 54.433 20.782C54.1652 20.6481 53.889 20.556 53.6044 20.5058C53.2864 20.4556 52.96 20.3635 52.6253 20.2296C52.3072 20.0957 52.0059 19.9367 51.7214 19.7526C51.4536 19.5684 51.2276 19.3676 51.0435 19.15C50.8761 18.9156 50.784 18.6646 50.7673 18.3968C50.7506 18.3968 50.7338 18.0787 50.7171 17.4427C50.7506 17.1916 50.784 16.9907 50.8175 16.8401C50.851 16.6895 50.9263 16.5556 51.0435 16.4384C51.1607 16.3045 51.3364 16.1622 51.5707 16.0116C51.8218 15.8609 52.1733 15.6433 52.6253 15.3588C52.7592 15.342 53.0019 15.3253 53.3534 15.3086C53.7216 15.2751 54.2154 15.2249 54.8347 15.1579C55.1025 15.1579 55.7888 15.3588 56.8935 15.7605C57.0609 15.9111 57.1446 16.1371 57.1446 16.4384C57.1446 16.9573 56.9688 17.2167 56.6173 17.2167C56.6006 17.2167 56.5838 17.2167 56.5671 17.2167C56.5504 17.2 56.5253 17.1916 56.4918 17.1916L55.5879 16.8903C55.136 16.7564 54.751 16.6895 54.433 16.6895C53.9643 16.6895 53.5877 16.7146 53.3032 16.7648C53.0353 16.815 52.8345 16.8819 52.7006 16.9656C52.5667 17.0326 52.4746 17.1079 52.4244 17.1916C52.3742 17.2753 52.3407 17.3506 52.324 17.4176C52.324 17.4678 52.3156 17.518 52.2989 17.5682C52.2989 17.6017 52.2989 17.6435 52.2989 17.6938C52.2989 18.3465 52.5667 18.7483 53.1023 18.8989C55.7469 19.4345 57.2283 20.556 57.5463 22.2633ZM71.0591 23.1556C71.1168 23.2709 71.1456 23.3861 71.1456 23.5014C71.1456 23.7896 71.0495 24.0586 70.8574 24.3083C70.6653 24.5389 70.4635 24.6542 70.2522 24.6542C70.0409 24.6542 69.5605 24.3083 68.8112 23.6167C68.523 23.1748 68.2733 22.8482 68.0619 22.6368C67.8506 22.4063 67.6393 22.1949 67.4279 22.0028C67.2358 21.8107 67.0245 21.5993 66.7939 21.3688C66.5633 21.119 66.2655 20.754 65.9005 20.2737L64.4596 22.0605C64.1906 22.5023 63.96 22.8674 63.7679 23.1556C63.595 23.4438 63.4317 23.7127 63.278 23.9625C63.1435 24.2123 62.9994 24.462 62.8457 24.7118C62.692 24.9424 62.4999 25.2209 62.2693 25.5476C62.1348 25.6821 61.9427 25.7493 61.6929 25.7493C61.4239 25.7493 61.1838 25.6724 60.9724 25.5187C60.7803 25.3843 60.6843 25.2017 60.6843 24.9712C60.6843 24.8751 60.7227 24.7502 60.7995 24.5965C60.8956 24.4236 61.0013 24.2507 61.1165 24.0778C61.2318 23.8857 61.3471 23.6935 61.4624 23.5014C61.5776 23.3093 61.6641 23.1268 61.7217 22.9538C61.9139 22.6464 62.0964 22.3775 62.2693 22.1469C62.4422 21.8971 62.6343 21.6378 62.8457 21.3688C63.057 21.0806 63.3068 20.754 63.595 20.3889C63.8832 20.0047 64.229 19.534 64.6325 18.9768C64.4211 18.8423 64.2482 18.7174 64.1137 18.6022C63.9792 18.4677 63.8159 18.314 63.6238 18.1411C63.4317 17.9681 63.1915 17.7664 62.9033 17.5359C62.6151 17.2861 62.2117 16.9883 61.6929 16.6425C61.3087 16.3735 61.0301 16.1621 60.8572 16.0084C60.7035 15.8355 60.6266 15.6338 60.6266 15.4032C60.6266 14.75 60.934 14.4234 61.5488 14.4234C61.7217 14.4234 61.8754 14.4618 62.0099 14.5387L63.5373 15.7202C63.6142 15.8355 63.7679 15.9988 63.9984 16.2102C64.2482 16.4023 64.498 16.5944 64.7477 16.7866C65.0167 16.9787 65.2473 17.1516 65.4394 17.3053C65.6507 17.4398 65.766 17.5166 65.7852 17.5359C66.035 17.3437 66.2463 17.1516 66.4193 16.9595C66.6114 16.7481 66.7651 16.5656 66.8804 16.4119C67.0148 16.2582 67.1109 16.1333 67.1685 16.0373C67.2262 15.9412 67.255 15.9028 67.255 15.922C67.6393 15.3648 67.9467 14.971 68.1772 14.7404C68.427 14.4906 68.6575 14.3658 68.8689 14.3658C69.4837 14.3658 69.7911 14.6347 69.7911 15.1727C69.7911 15.4609 69.5797 15.874 69.1571 16.4119L67.9178 17.9681L67.1109 18.8327C67.4952 19.3515 68.158 20.0815 69.0994 21.023L71.0591 23.1556ZM86.2979 17.824C86.0866 17.8817 85.8656 17.9105 85.6351 17.9105C85.5198 17.9105 85.3661 17.9009 85.174 17.8817C85.001 17.8625 84.8089 17.8433 84.5976 17.824C84.4054 17.8048 84.2037 17.7856 83.9924 17.7664C83.8002 17.7472 83.6369 17.7376 83.5024 17.7376C83.5024 17.7568 83.3199 17.7568 82.9549 17.7376C82.6091 17.6992 82.0807 17.6799 81.3698 17.6799C80.8895 17.6799 80.5917 17.7376 80.4764 17.8529C80.1114 17.8721 79.6599 17.9009 79.1219 17.9393C78.6032 17.9777 77.998 18.0162 77.3063 18.0546C76.6147 17.997 76.2689 17.6992 76.2689 17.1612C76.2689 16.9691 76.2881 16.7962 76.3265 16.6425C76.3649 16.4888 76.4898 16.3639 76.7011 16.2678C76.9125 16.1717 77.2391 16.0949 77.681 16.0373C78.1421 15.9796 78.7761 15.9412 79.583 15.922C79.6791 15.922 79.7848 15.9316 79.9001 15.9508C80.0345 15.9508 80.1786 15.9508 80.3323 15.9508C81.1009 15.9508 82.1383 15.922 83.4448 15.8643C83.8291 15.8836 84.2325 15.9124 84.6552 15.9508C85.0971 15.9892 85.5678 16.0373 86.0673 16.0949C86.4324 16.3831 86.6149 16.7097 86.6149 17.0747C86.6149 17.3245 86.5092 17.5743 86.2979 17.824ZM100.019 21.8587C99.9615 22.4159 99.7598 22.9442 99.414 23.4438L98.3765 24.9135C98.2036 25.0672 97.9346 25.1921 97.5695 25.2882C97.2045 25.4035 96.8299 25.4899 96.4456 25.5476C96.0806 25.6244 95.7443 25.6821 95.4369 25.7205C95.1487 25.7589 94.995 25.7781 94.9758 25.7781C94.7837 25.7781 94.5339 25.7397 94.2265 25.6628C93.9383 25.6052 93.6502 25.538 93.362 25.4611C93.0738 25.3843 92.824 25.3074 92.6127 25.2306C92.4013 25.1729 92.286 25.1441 92.2668 25.1441H92.238C92.0267 25.1249 91.7961 25.0769 91.5464 25C91.3158 24.9231 91.0853 24.8271 90.8547 24.7118C90.6434 24.5965 90.4704 24.4716 90.336 24.3372C90.1823 24.1835 90.1054 24.0202 90.1054 23.8472C90.1054 23.6359 90.2111 23.4246 90.4224 23.2132C90.6338 22.9827 90.8451 22.8674 91.0564 22.8674C92.9969 23.6359 94.5435 24.0202 95.6963 24.0202C96.119 24.0202 96.4744 23.9337 96.7626 23.7608C97.07 23.5879 97.3006 23.4053 97.4543 23.2132L98.0595 22.1181C98.0595 21.8683 97.9826 21.6186 97.8289 21.3688C97.6944 21.119 97.5023 20.8981 97.2525 20.706C97.022 20.4946 96.753 20.3121 96.4456 20.1584C96.1382 20.0047 95.8212 19.899 95.4946 19.8414C95.1295 19.7837 94.7549 19.6781 94.3706 19.5244C94.0056 19.3707 93.6598 19.1881 93.3331 18.9768C93.0257 18.7655 92.7664 18.5349 92.555 18.2851C92.3629 18.0162 92.2572 17.728 92.238 17.4206C92.2188 17.4206 92.1996 17.0555 92.1804 16.3254C92.2188 16.0373 92.2572 15.8067 92.2957 15.6338C92.3341 15.4609 92.4205 15.3072 92.555 15.1727C92.6895 15.019 92.8912 14.8557 93.1602 14.6828C93.4484 14.5098 93.8519 14.2601 94.3706 13.9335C94.5243 13.9143 94.8029 13.895 95.2064 13.8758C95.6291 13.8374 96.1958 13.7798 96.9067 13.7029C97.2141 13.7029 98.0018 13.9335 99.2699 14.3946C99.462 14.5675 99.5581 14.8269 99.5581 15.1727C99.5581 15.7683 99.3563 16.0661 98.9529 16.0661C98.9337 16.0661 98.9144 16.0661 98.8952 16.0661C98.876 16.0469 98.8472 16.0373 98.8088 16.0373L97.7713 15.6914C97.2525 15.5377 96.8106 15.4609 96.4456 15.4609C95.9076 15.4609 95.4754 15.4897 95.1487 15.5473C94.8413 15.605 94.6108 15.6818 94.4571 15.7779C94.3034 15.8547 94.1977 15.9412 94.1401 16.0373C94.0824 16.1333 94.044 16.2198 94.0248 16.2966C94.0248 16.3543 94.0152 16.4119 93.996 16.4695C93.996 16.508 93.996 16.556 93.996 16.6136C93.996 17.3629 94.3034 17.824 94.9182 17.997C97.9538 18.6118 99.6541 19.899 100.019 21.8587ZM107.47 11.8585C107.47 12.1851 107.413 12.4541 107.298 12.6654C107.202 12.8576 107.067 13.0016 106.894 13.0977C106.721 13.1938 106.529 13.261 106.318 13.2994C106.126 13.3187 105.933 13.3283 105.741 13.3283C105.472 13.1361 105.242 12.9248 105.05 12.6942C104.877 12.4445 104.79 12.2043 104.79 11.9738C104.79 11.8009 104.867 11.6087 105.021 11.3974C105.175 11.1668 105.309 10.9459 105.424 10.7345L106.75 10.8498C107.23 10.9651 107.47 11.3013 107.47 11.8585ZM106.491 16.0373V16.1525C106.491 16.3254 106.462 16.6136 106.404 17.0171C106.366 17.4014 106.299 17.9105 106.202 18.5445C106.222 18.6406 106.231 18.7751 106.231 18.948C106.231 19.0633 106.193 19.3226 106.116 19.7261C106.039 20.1296 106.001 20.4754 106.001 20.7636C106.001 20.8212 106.001 20.8789 106.001 20.9365C106.02 20.9941 106.03 21.0422 106.03 21.0806C105.972 21.3496 105.943 21.7338 105.943 22.2334C105.943 22.4447 105.943 22.6753 105.943 22.925C105.962 23.1556 105.982 23.4053 106.001 23.6743C105.847 24.2315 105.549 24.5101 105.107 24.5101C104.723 24.5101 104.454 24.3083 104.3 23.9049C104.166 23.4822 104.099 22.9346 104.099 22.2622C104.099 21.5897 104.118 20.9749 104.156 20.4178C104.214 19.8606 104.281 19.3418 104.358 18.8615C104.435 18.362 104.512 17.8913 104.589 17.4494C104.685 16.9883 104.771 16.5368 104.848 16.0949C105.04 15.8067 105.309 15.6626 105.655 15.6626C106.02 15.6626 106.299 15.7875 106.491 16.0373ZM121.139 21.9452V22.1757C121.139 22.2718 121.139 22.4639 121.139 22.7521C121.159 23.0211 121.139 23.2997 121.082 23.5879C121.024 23.8761 120.918 24.1354 120.765 24.366C120.63 24.5965 120.409 24.7118 120.102 24.7118C119.545 24.7118 119.208 24.4909 119.093 24.049C119.112 23.8953 119.122 23.732 119.122 23.559C119.141 23.3669 119.151 23.1652 119.151 22.9538C119.151 22.5888 119.132 22.1757 119.093 21.7146C119.074 21.2535 119.045 20.7444 119.007 20.1872L118.776 18.8039C118.699 18.3428 118.574 17.9874 118.401 17.7376C118.229 17.4686 118.036 17.2765 117.825 17.1612C117.614 17.0267 117.393 16.9499 117.162 16.9307C116.951 16.8922 116.768 16.873 116.615 16.873C116.038 16.873 115.548 17.0459 115.145 17.3918C114.741 17.7184 114.405 18.3716 114.136 19.3515C114.117 19.6781 114.088 20.0335 114.05 20.4178C114.031 20.802 113.983 21.2247 113.906 21.6858C113.944 22.3775 114.002 23.2612 114.079 24.3372C114.079 24.9328 113.742 25.2306 113.07 25.2306C112.801 25.2306 112.59 25.1537 112.436 25C112.301 24.8463 112.196 24.6542 112.119 24.4236C112.061 24.1739 112.023 23.9145 112.004 23.6455C111.984 23.3765 111.975 23.1268 111.975 22.8962C111.975 22.6849 111.984 22.4735 112.004 22.2622C112.023 22.0508 112.052 21.8299 112.09 21.5993L112.349 18.631C112.369 18.4196 112.398 18.1891 112.436 17.9393C112.494 17.6896 112.561 17.411 112.638 17.1036C112.58 16.6809 112.407 16.1814 112.119 15.605V15.4897C112.119 15.2784 112.215 15.0766 112.407 14.8845C112.618 14.6924 112.859 14.5963 113.128 14.5963C113.397 14.5963 113.618 14.6924 113.79 14.8845C113.963 15.0574 114.184 15.3552 114.453 15.7779C114.607 15.6434 114.857 15.5185 115.203 15.4032C115.568 15.2687 115.981 15.2015 116.442 15.2015C117.479 15.2015 118.373 15.4225 119.122 15.8643C119.871 16.3062 120.352 17.094 120.563 18.2275C120.621 18.6694 120.669 19.0344 120.707 19.3226C120.745 19.5916 120.784 19.851 120.822 20.1008C120.88 20.3313 120.928 20.5907 120.966 20.8789C121.024 21.1478 121.082 21.5033 121.139 21.9452ZM135.452 23.1556C135.509 23.2709 135.538 23.3861 135.538 23.5014C135.538 23.7896 135.442 24.0586 135.25 24.3083C135.058 24.5389 134.856 24.6542 134.645 24.6542C134.434 24.6542 133.953 24.3083 133.204 23.6167C132.916 23.1748 132.666 22.8482 132.455 22.6368C132.243 22.4063 132.032 22.1949 131.821 22.0028C131.628 21.8107 131.417 21.5993 131.187 21.3688C130.956 21.119 130.658 20.754 130.293 20.2737L128.852 22.0605C128.583 22.5023 128.353 22.8674 128.161 23.1556C127.988 23.4438 127.824 23.7127 127.671 23.9625C127.536 24.2123 127.392 24.462 127.238 24.7118C127.085 24.9424 126.893 25.2209 126.662 25.5476C126.527 25.6821 126.335 25.7493 126.086 25.7493C125.817 25.7493 125.576 25.6724 125.365 25.5187C125.173 25.3843 125.077 25.2017 125.077 24.9712C125.077 24.8751 125.115 24.7502 125.192 24.5965C125.288 24.4236 125.394 24.2507 125.509 24.0778C125.624 23.8857 125.74 23.6935 125.855 23.5014C125.97 23.3093 126.057 23.1268 126.114 22.9538C126.307 22.6464 126.489 22.3775 126.662 22.1469C126.835 21.8971 127.027 21.6378 127.238 21.3688C127.45 21.0806 127.699 20.754 127.988 20.3889C128.276 20.0047 128.622 19.534 129.025 18.9768C128.814 18.8423 128.641 18.7174 128.506 18.6022C128.372 18.4677 128.209 18.314 128.016 18.1411C127.824 17.9681 127.584 17.7664 127.296 17.5359C127.008 17.2861 126.604 16.9883 126.086 16.6425C125.701 16.3735 125.423 16.1621 125.25 16.0084C125.096 15.8355 125.019 15.6338 125.019 15.4032C125.019 14.75 125.327 14.4234 125.942 14.4234C126.114 14.4234 126.268 14.4618 126.403 14.5387L127.93 15.7202C128.007 15.8355 128.161 15.9988 128.391 16.2102C128.641 16.4023 128.891 16.5944 129.14 16.7866C129.409 16.9787 129.64 17.1516 129.832 17.3053C130.043 17.4398 130.159 17.5166 130.178 17.5359C130.428 17.3437 130.639 17.1516 130.812 16.9595C131.004 16.7481 131.158 16.5656 131.273 16.4119C131.408 16.2582 131.504 16.1333 131.561 16.0373C131.619 15.9412 131.648 15.9028 131.648 15.922C132.032 15.3648 132.339 14.971 132.57 14.7404C132.82 14.4906 133.05 14.3658 133.262 14.3658C133.876 14.3658 134.184 14.6347 134.184 15.1727C134.184 15.4609 133.972 15.874 133.55 16.4119L132.311 17.9681L131.504 18.8327C131.888 19.3515 132.551 20.0815 133.492 21.023L135.452 23.1556Z" fill="white"/>
</svg>
